<?xml version="1.0" encoding="UTF-8" ?>
<!DOCTYPE svg PUBLIC "-//W3C//DTD SVG 1.1//EN" "http://www.w3.org/Graphics/SVG/1.1/DTD/svg11.dtd">
<svg width="3000pt" height="247pt" viewBox="0 0 3000 247" version="1.1" xmlns="http://www.w3.org/2000/svg">
<g id="#ffffffff">
</g>
<g id="#000000ff">
<path fill="#000000" opacity="1.00" d=" M 272.96 6.14 C 287.26 4.90 301.52 3.18 315.84 2.16 C 305.99 66.72 295.44 131.19 285.41 195.72 C 284.78 200.25 284.29 205.20 286.53 209.38 C 288.14 212.24 291.71 213.29 294.80 212.88 C 299.60 212.32 303.47 209.05 306.76 205.75 C 313.32 198.84 317.88 190.31 321.70 181.66 C 322.37 180.19 323.26 178.20 325.23 178.51 C 330.91 178.49 336.61 178.24 342.28 178.76 C 336.19 195.12 327.60 210.78 315.59 223.56 C 305.54 234.30 292.02 242.81 276.97 243.41 C 267.04 243.74 256.12 242.45 248.32 235.70 C 242.25 230.49 239.76 222.46 238.84 214.76 C 223.46 228.25 204.10 236.51 184.13 240.34 C 164.78 243.99 144.75 244.68 125.28 241.50 C 110.54 238.86 95.35 233.29 85.43 221.54 C 77.11 211.86 74.42 198.46 75.92 186.01 C 76.95 173.43 82.97 161.67 91.36 152.39 C 102.07 140.44 116.19 131.98 131.16 126.49 C 121.52 120.87 113.39 112.39 109.50 101.80 C 98.81 114.29 86.10 125.82 70.38 131.43 C 58.24 135.73 44.64 136.59 32.27 132.73 C 22.77 129.78 14.24 123.29 9.62 114.38 C 4.06 103.84 3.98 91.24 6.69 79.86 C 11.31 61.77 24.51 46.72 40.40 37.39 C 46.88 33.89 53.68 30.20 61.12 29.52 C 56.62 39.82 52.28 50.52 51.97 61.93 C 51.71 68.97 52.96 76.70 58.03 81.97 C 63.36 87.48 71.68 88.62 78.96 87.70 C 88.59 86.33 96.35 79.62 102.35 72.37 C 107.17 66.34 111.70 59.99 114.97 52.97 C 122.87 38.10 136.07 26.49 151.02 19.02 C 170.60 9.16 193.63 6.00 215.04 11.00 C 224.31 13.26 233.62 17.76 239.17 25.82 C 244.53 33.39 245.62 43.14 244.47 52.13 C 243.06 64.47 237.19 76.60 227.19 84.21 C 219.45 90.18 208.76 92.73 199.38 89.54 C 194.56 87.92 190.14 83.98 189.48 78.73 C 188.79 72.72 191.13 66.54 195.06 62.02 C 201.71 54.52 212.43 51.94 222.12 53.17 C 222.30 46.54 219.94 39.59 214.58 35.41 C 206.48 28.76 194.94 28.32 185.25 31.20 C 173.25 34.71 163.72 43.97 157.74 54.71 C 150.21 68.02 147.43 83.64 148.23 98.82 C 148.64 105.70 150.28 112.59 153.74 118.61 C 163.71 114.81 174.30 112.53 184.98 112.15 C 191.82 112.10 199.37 112.59 204.92 117.09 C 209.49 120.74 210.29 127.59 207.76 132.66 C 204.24 139.91 196.47 144.13 188.77 145.40 C 176.14 147.32 163.47 143.43 152.13 138.14 C 138.43 149.47 128.57 166.01 127.56 184.00 C 126.89 193.60 131.07 203.38 138.67 209.33 C 149.61 218.08 164.29 220.21 177.91 219.67 C 201.64 218.53 225.84 207.34 238.92 186.95 C 241.92 182.93 241.97 177.73 242.82 173.00 C 251.49 118.22 260.10 63.42 268.79 8.64 C 268.66 6.27 271.29 6.33 272.96 6.14 Z" />
<path fill="#000000" opacity="1.00" d=" M 1611.96 6.14 C 1626.26 4.90 1640.52 3.18 1654.84 2.16 C 1650.26 33.30 1644.94 64.33 1640.20 95.45 C 1644.92 89.77 1649.89 84.20 1655.95 79.90 C 1665.13 73.16 1676.57 68.94 1688.07 69.99 C 1696.54 70.54 1704.98 73.89 1710.91 80.07 C 1718.22 87.74 1721.97 98.08 1723.75 108.36 C 1726.75 126.34 1725.16 144.83 1721.29 162.56 C 1717.41 180.42 1710.75 197.84 1700.34 212.95 C 1707.33 215.46 1715.35 215.70 1721.94 211.86 C 1733.23 205.47 1741.26 194.56 1747.20 183.26 C 1749.58 179.21 1748.47 174.41 1748.99 169.98 C 1750.67 146.82 1757.29 123.64 1770.29 104.23 C 1779.76 90.07 1793.42 78.19 1809.90 73.13 C 1819.58 69.85 1830.00 69.28 1840.13 70.28 C 1849.48 71.21 1858.85 73.92 1866.61 79.37 C 1873.33 84.02 1878.45 90.74 1881.84 98.13 C 1887.45 110.57 1888.58 124.51 1888.03 138.00 C 1886.71 164.05 1879.65 190.31 1864.95 212.09 C 1870.81 215.89 1878.50 215.53 1884.67 212.66 C 1892.11 209.26 1897.70 202.95 1902.30 196.35 C 1906.95 189.82 1909.91 182.31 1913.10 175.01 C 1921.87 151.90 1929.86 128.09 1931.98 103.32 C 1924.52 100.45 1917.39 95.32 1914.42 87.64 C 1910.12 76.76 1916.03 63.30 1926.63 58.61 C 1935.11 54.74 1946.35 56.10 1952.60 63.39 C 1958.02 69.64 1958.99 78.36 1958.73 86.32 C 1969.86 81.37 1980.84 75.92 1992.57 72.48 C 2000.39 70.19 2008.93 68.57 2016.90 71.15 C 2020.79 72.35 2023.65 75.95 2024.09 79.99 C 2024.83 86.38 2023.37 92.77 2022.17 99.03 C 2016.74 123.67 2011.13 148.27 2005.65 172.90 C 2003.59 182.45 2001.04 192.07 2001.30 201.92 C 2001.53 205.42 2001.99 209.62 2005.17 211.76 C 2009.15 214.26 2014.25 212.39 2017.55 209.57 C 2026.87 201.47 2031.25 189.55 2037.34 179.16 C 2043.45 178.40 2049.72 178.84 2055.89 178.98 C 2053.46 187.20 2049.15 194.71 2045.35 202.36 C 2037.82 216.07 2028.20 229.48 2014.34 237.35 C 2003.43 243.62 1990.10 244.93 1977.96 242.01 C 1971.30 240.39 1965.03 236.60 1961.18 230.84 C 1956.46 223.89 1955.13 215.25 1955.14 207.01 C 1955.09 195.81 1957.61 184.84 1959.97 173.96 C 1965.35 148.91 1970.65 123.85 1976.17 98.84 C 1969.46 100.23 1962.81 101.85 1956.13 103.28 C 1949.72 126.21 1943.12 149.16 1934.19 171.26 C 1931.45 177.58 1929.59 184.26 1926.30 190.34 C 1918.69 205.44 1907.70 219.47 1892.74 227.82 C 1883.84 232.78 1873.35 235.17 1863.22 233.53 C 1858.04 232.74 1853.14 230.88 1848.33 228.91 C 1833.86 240.03 1815.05 244.74 1796.99 243.23 C 1786.59 242.34 1776.24 238.64 1768.34 231.69 C 1760.94 225.28 1756.13 216.45 1752.86 207.33 C 1742.85 219.43 1729.81 230.09 1714.06 233.20 C 1704.24 235.32 1694.03 233.29 1684.98 229.24 C 1671.06 240.70 1651.87 246.27 1634.13 242.13 C 1628.05 240.84 1622.93 237.26 1617.89 233.90 C 1602.38 235.77 1586.95 238.23 1571.45 240.10 C 1571.64 235.46 1572.75 230.93 1573.27 226.34 C 1568.23 231.05 1563.02 235.76 1556.74 238.77 C 1546.47 244.07 1534.30 244.56 1523.20 241.94 C 1516.24 240.31 1509.77 236.02 1506.25 229.72 C 1503.92 225.95 1503.03 221.57 1501.97 217.34 C 1491.80 228.94 1478.86 238.86 1463.57 242.34 C 1452.02 244.97 1438.81 243.31 1429.61 235.38 C 1421.65 228.67 1417.27 218.73 1414.98 208.78 C 1410.72 189.37 1412.52 169.12 1416.77 149.88 C 1421.75 128.12 1430.46 106.43 1446.11 90.11 C 1457.92 77.64 1474.73 69.82 1492.00 69.85 C 1502.10 69.52 1512.38 72.75 1519.96 79.55 C 1535.48 77.54 1550.95 75.07 1566.51 73.34 C 1561.26 109.41 1555.20 145.38 1549.65 181.41 C 1548.56 189.36 1546.47 197.39 1547.58 205.45 C 1547.98 208.91 1550.16 212.89 1554.10 212.92 C 1560.84 212.96 1565.49 207.10 1569.14 202.15 C 1573.54 195.41 1578.31 188.54 1580.52 180.73 C 1589.69 123.38 1598.66 65.99 1607.79 8.62 C 1607.65 6.27 1610.29 6.34 1611.96 6.14 M 1495.29 94.11 C 1489.00 95.65 1484.14 100.41 1480.51 105.55 C 1473.90 114.97 1470.22 126.03 1467.13 137.01 C 1463.63 150.40 1461.30 164.15 1460.94 177.99 C 1460.86 186.53 1460.90 195.48 1464.55 203.38 C 1466.50 207.87 1470.90 211.48 1475.99 211.27 C 1484.60 211.18 1491.55 204.96 1496.61 198.57 C 1499.12 195.00 1502.48 191.55 1502.88 186.99 C 1507.22 159.01 1511.92 131.08 1516.17 103.10 C 1512.70 95.52 1503.13 92.18 1495.29 94.11 M 1834.42 94.62 C 1827.11 96.55 1821.06 101.61 1816.48 107.47 C 1811.64 113.71 1808.06 120.85 1805.33 128.23 C 1800.44 141.51 1797.22 155.47 1796.63 169.64 C 1796.03 179.91 1796.47 190.45 1799.77 200.29 C 1801.93 206.69 1805.99 212.92 1812.35 215.77 C 1818.87 218.63 1826.65 218.49 1833.07 215.36 C 1829.09 210.45 1826.46 204.38 1826.31 198.01 C 1825.85 185.75 1832.82 173.46 1843.62 167.60 C 1849.51 164.24 1856.35 163.12 1863.06 163.10 C 1865.50 148.36 1867.19 133.21 1864.80 118.35 C 1863.48 110.91 1860.98 103.03 1855.03 97.97 C 1849.38 93.18 1841.30 92.76 1834.42 94.62 M 1642.45 113.46 C 1639.15 117.19 1635.90 121.43 1635.34 126.54 C 1630.92 154.62 1626.31 182.66 1621.89 210.74 C 1625.78 215.72 1631.45 219.76 1637.99 219.75 C 1646.01 220.03 1653.04 214.78 1657.56 208.55 C 1665.36 197.84 1669.19 184.91 1672.38 172.21 C 1675.44 159.02 1677.74 145.57 1677.91 132.00 C 1677.78 123.85 1677.53 115.12 1673.08 107.98 C 1670.27 103.37 1664.43 101.11 1659.23 102.38 C 1652.60 104.10 1647.01 108.49 1642.45 113.46 Z" />
<path fill="#000000" opacity="1.00" d=" M 447.69 30.70 C 469.52 16.32 495.62 6.81 522.06 8.99 C 528.38 9.39 535.18 11.71 538.28 17.68 C 553.18 9.99 570.53 6.93 587.12 9.65 C 596.75 11.26 606.22 15.90 612.11 23.89 C 619.39 33.56 621.05 46.31 619.81 58.07 C 618.21 73.93 609.85 88.53 598.41 99.40 C 591.21 106.49 582.44 111.70 573.32 115.94 C 586.53 118.76 598.90 126.21 606.43 137.58 C 614.98 150.04 617.70 166.07 614.48 180.76 C 611.17 198.76 602.06 216.11 587.29 227.26 C 571.09 239.66 550.06 244.04 530.00 243.39 C 517.77 242.15 505.42 238.76 495.11 231.88 C 486.67 239.57 475.22 243.02 463.98 243.41 C 453.52 243.85 442.22 242.84 433.46 236.55 C 423.75 229.43 419.80 216.59 420.24 204.97 C 424.70 206.75 427.76 210.77 432.09 212.83 C 440.48 217.59 452.83 217.01 459.16 209.15 C 464.38 202.13 464.66 193.00 466.09 184.70 C 447.35 189.15 426.86 190.88 408.70 183.23 C 396.44 178.24 386.90 167.29 383.75 154.43 C 379.36 137.00 382.82 118.55 389.01 102.00 C 400.46 72.85 421.77 48.04 447.69 30.70 M 456.31 65.25 C 445.33 82.22 437.91 101.79 436.60 122.05 C 435.99 133.10 437.68 145.16 445.20 153.78 C 451.19 160.77 460.47 163.81 469.41 164.49 C 476.34 120.40 483.39 76.33 490.14 32.21 C 476.25 40.07 465.00 51.99 456.31 65.25 M 539.37 37.37 C 537.71 37.76 537.86 39.57 537.59 40.87 C 533.78 65.60 529.87 90.31 526.03 115.04 C 530.79 115.09 535.65 114.95 540.19 113.35 C 550.42 109.97 558.34 101.76 563.59 92.59 C 570.63 80.18 573.96 65.36 571.48 51.21 C 570.35 44.75 566.82 38.10 560.51 35.48 C 553.64 32.62 545.88 34.45 539.37 37.37 M 523.10 133.25 C 520.05 152.21 516.98 171.18 513.92 190.14 C 512.54 198.56 510.25 206.81 506.89 214.66 C 515.92 218.80 526.39 220.39 536.11 217.94 C 547.08 215.01 555.30 206.00 560.12 196.07 C 564.70 186.41 567.24 175.68 567.11 164.97 C 567.03 155.42 563.14 145.43 555.05 139.90 C 545.81 133.34 533.99 133.02 523.10 133.25 Z" />
<path fill="#000000" opacity="1.00" d=" M 1306.68 20.69 C 1324.67 10.42 1346.14 6.82 1366.59 9.60 C 1376.98 10.87 1387.53 13.68 1396.12 19.88 C 1402.37 24.32 1406.88 31.36 1407.53 39.08 C 1408.30 48.34 1405.59 58.25 1399.04 65.02 C 1392.63 71.74 1381.60 72.96 1373.67 68.33 C 1369.38 65.84 1366.80 60.89 1367.11 55.95 C 1367.28 47.63 1372.14 40.39 1377.34 34.27 C 1363.02 26.61 1344.03 26.72 1330.97 36.91 C 1322.41 43.51 1317.28 54.22 1317.25 64.99 C 1317.29 73.78 1322.13 81.76 1328.19 87.81 C 1339.72 99.50 1354.08 107.83 1366.34 118.68 C 1380.21 130.22 1392.06 146.31 1392.39 165.04 C 1392.53 186.48 1383.74 208.28 1367.61 222.65 C 1353.75 235.08 1335.39 241.64 1317.01 243.15 C 1301.50 244.35 1285.43 242.49 1271.30 235.72 C 1261.59 231.05 1252.92 223.57 1248.27 213.72 C 1243.31 203.54 1242.97 191.64 1245.47 180.75 C 1247.39 172.56 1251.76 164.58 1258.89 159.85 C 1264.53 156.06 1272.06 154.75 1278.41 157.50 C 1281.91 158.99 1284.45 162.31 1285.21 166.01 C 1286.38 171.82 1284.97 177.94 1282.06 183.04 C 1278.39 189.57 1273.24 195.06 1268.37 200.70 C 1272.50 208.04 1278.95 214.11 1286.84 217.22 C 1298.59 221.92 1312.32 221.96 1323.98 216.97 C 1337.48 211.13 1345.32 195.40 1342.73 181.07 C 1341.41 173.99 1337.26 167.79 1332.27 162.74 C 1323.75 154.15 1313.67 147.36 1304.45 139.57 C 1292.23 129.55 1278.59 119.64 1272.63 104.37 C 1265.96 111.81 1258.90 119.05 1250.43 124.44 C 1241.94 130.01 1232.22 133.86 1222.07 134.84 C 1210.52 136.00 1198.15 134.32 1188.46 127.54 C 1180.25 121.92 1174.92 112.69 1173.36 102.94 C 1171.22 89.80 1173.91 75.99 1180.49 64.45 C 1188.40 50.40 1201.24 39.36 1215.98 32.97 C 1219.66 31.40 1223.44 29.92 1227.44 29.34 C 1224.49 37.24 1220.86 44.97 1219.61 53.40 C 1218.12 62.41 1217.85 72.73 1223.64 80.36 C 1229.09 87.52 1239.20 89.22 1247.56 87.30 C 1256.45 85.21 1262.71 77.79 1267.38 70.39 C 1270.49 65.10 1273.75 59.84 1276.11 54.14 C 1282.30 40.05 1293.35 28.31 1306.68 20.69 Z" />
<path fill="#000000" opacity="1.00" d=" M 847.67 78.67 C 862.60 70.57 880.31 68.37 896.99 70.79 C 907.13 72.36 917.66 76.61 923.65 85.36 C 930.20 94.92 929.99 107.37 927.44 118.24 C 924.46 131.52 915.36 142.82 903.94 149.95 C 887.37 160.36 867.61 164.34 848.31 165.45 C 848.00 178.63 849.62 192.63 857.27 203.75 C 862.59 211.67 871.64 216.69 881.10 217.53 C 892.86 218.48 905.09 216.35 915.33 210.33 C 924.86 204.80 932.36 196.25 937.67 186.68 C 938.75 184.87 939.26 182.81 939.63 180.76 C 945.38 144.96 950.90 109.12 956.75 73.33 C 970.82 72.65 984.94 73.23 999.03 73.03 C 1000.36 73.08 1003.13 72.82 1002.53 75.04 C 1001.07 85.48 999.06 95.84 997.59 106.28 C 1006.36 94.63 1016.34 83.36 1029.29 76.28 C 1041.19 69.68 1055.88 67.84 1068.86 72.22 C 1076.50 74.80 1082.61 81.12 1085.17 88.74 C 1089.45 101.21 1087.72 114.72 1085.25 127.38 C 1081.02 148.71 1076.45 169.97 1072.20 191.30 C 1071.26 196.96 1070.46 203.00 1072.37 208.55 C 1073.50 211.95 1077.39 213.64 1080.75 212.71 C 1086.52 211.25 1090.36 206.23 1093.67 201.63 C 1098.74 194.64 1101.95 186.55 1106.35 179.18 C 1112.48 178.45 1118.80 178.68 1124.97 179.14 C 1121.59 189.07 1116.61 198.41 1111.50 207.55 C 1104.22 219.77 1094.93 231.50 1082.09 238.19 C 1070.98 244.05 1057.57 244.90 1045.56 241.54 C 1037.51 239.31 1030.56 233.37 1027.52 225.54 C 1022.82 213.66 1024.09 200.47 1026.10 188.15 C 1029.73 169.34 1034.04 150.66 1037.69 131.85 C 1038.58 125.98 1039.77 119.52 1037.14 113.92 C 1034.42 108.68 1027.27 108.97 1022.41 110.50 C 1012.14 114.11 1004.07 122.00 997.21 130.20 C 995.24 132.91 992.45 135.42 992.18 138.96 C 987.42 169.65 982.60 200.32 977.84 231.01 C 977.36 234.06 976.98 237.14 976.08 240.11 C 960.86 240.43 945.61 240.31 930.39 240.17 C 931.03 233.67 932.40 227.27 933.21 220.79 C 917.22 234.89 896.21 242.77 874.96 243.40 C 857.97 243.86 840.08 241.83 825.34 232.72 C 816.09 227.26 809.17 218.48 804.87 208.73 C 797.59 220.39 788.62 231.64 776.27 238.20 C 766.06 243.77 753.80 244.69 742.57 242.21 C 736.35 240.81 730.33 237.73 726.32 232.67 C 722.62 228.19 720.98 222.48 719.77 216.90 C 710.12 230.26 695.80 241.19 679.05 243.10 C 668.31 244.07 656.81 243.26 647.28 237.78 C 639.85 233.53 635.26 225.54 633.82 217.27 C 631.23 203.25 634.44 189.13 636.48 175.27 C 641.93 141.29 647.19 107.28 652.76 73.32 C 666.83 72.66 680.95 73.22 695.04 73.03 C 696.36 73.08 699.12 72.81 698.53 75.02 C 692.59 113.05 686.32 151.04 680.23 189.05 C 679.32 195.27 678.19 202.07 681.02 207.97 C 683.16 212.58 689.08 213.62 693.58 212.44 C 700.62 210.49 706.46 205.63 711.36 200.38 C 715.46 195.71 719.25 190.55 721.46 184.70 C 727.61 147.59 733.11 110.37 739.38 73.28 C 747.90 72.74 756.46 73.17 765.00 73.04 C 771.65 73.16 778.32 72.75 784.96 73.30 C 785.03 77.33 784.11 81.28 783.52 85.25 C 777.62 122.33 771.69 159.40 765.82 196.48 C 765.22 200.94 764.55 205.95 766.97 210.01 C 768.65 212.96 772.57 213.44 775.56 212.51 C 779.28 211.35 782.23 208.58 784.75 205.70 C 789.76 199.76 793.54 192.93 797.13 186.07 C 798.13 184.07 799.27 182.03 799.45 179.75 C 799.77 159.05 803.99 138.30 812.29 119.31 C 819.63 102.67 831.40 87.35 847.67 78.67 M 866.30 102.33 C 857.27 115.50 852.85 131.27 850.31 146.88 C 866.49 144.60 882.94 137.19 892.26 123.25 C 896.71 116.39 899.88 108.25 899.49 99.97 C 899.27 94.43 894.57 89.71 889.03 89.49 C 879.57 88.41 871.37 94.96 866.30 102.33 Z" />
</g>
</svg>
