<?xml version="1.0" encoding="UTF-8" standalone="no"?>
<!-- Created with Inkscape (http://www.inkscape.org/) -->

<svg
   width="297mm"
   height="297mm"
   viewBox="0 0 297 297"
   version="1.1"
   id="svg5"
   inkscape:version="1.1 (c68e22c387, 2021-05-23)"
   sodipodi:docname="iconLogo.svg"
   xmlns:inkscape="http://www.inkscape.org/namespaces/inkscape"
   xmlns:sodipodi="http://sodipodi.sourceforge.net/DTD/sodipodi-0.dtd"
   xmlns="http://www.w3.org/2000/svg"
   xmlns:svg="http://www.w3.org/2000/svg">
  <sodipodi:namedview
     id="namedview7"
     pagecolor="#505050"
     bordercolor="#eeeeee"
     borderopacity="1"
     inkscape:pageshadow="0"
     inkscape:pageopacity="0"
     inkscape:pagecheckerboard="0"
     inkscape:document-units="mm"
     showgrid="false"
     inkscape:zoom="0.038752104"
     inkscape:cx="-3586.902"
     inkscape:cy="2141.8192"
     inkscape:window-width="1920"
     inkscape:window-height="1017"
     inkscape:window-x="1916"
     inkscape:window-y="-4"
     inkscape:window-maximized="1"
     inkscape:current-layer="layer1" />
  <defs
     id="defs2" />
  <g
     inkscape:label="Capa 1"
     inkscape:groupmode="layer"
     id="layer1">
    <g
       id="#ffffffff"
       transform="matrix(0.35277778,0,0,0.35277778,-110.00485,-110.36207)" />
    <circle
       style="fill:#df1d19;fill-opacity:1;stroke-width:2.40478;stroke-linecap:square;stroke-miterlimit:1;paint-order:fill markers stroke"
       id="path1393"
       cx="105.82758"
       cy="-146.79311"
       r="141.4557" />
    <g
       id="#181513ff"
       style="fill:#000000"
       transform="matrix(0.7215149,0,0,0.7215149,-214.27502,-338.36908)">
      <path
         fill="#181513"
         opacity="1"
         d="m 488.88,117.71 c 17.33,-4.16 36.3,0.21 50.36,11.05 15.68,11.9 25.2,32.24 21.99,51.94 -1.73,6.58 -3.81,13.21 -7.63,18.9 -4.22,6.35 -10.25,11.14 -16.15,15.84 -3.74,2.9 -7.52,6.22 -9.04,10.87 -1.38,4.34 -2.47,8.9 -2.56,13.45 3.27,3.28 6.42,6.98 7.47,11.62 2.97,11.73 -0.16,23.91 -3.7,35.16 -4.14,11.57 -8.31,23.41 -15.74,33.35 -4.07,5.49 -8.09,11.25 -13.74,15.25 -1.79,1.28 -4.16,2.35 -6.29,1.19 -2.16,-2.19 -1.57,-5.53 -1.69,-8.31 0.31,-7.31 0.12,-14.62 0.23,-21.93 0.53,-5.83 3.17,-12.39 9.02,-14.65 3.52,-1.84 8.45,-1.77 10.59,-5.61 2.29,-4.6 1.5,-9.95 1.68,-14.91 0.19,-2.82 -0.7,-5.5 -2.44,-7.72 -8.25,2.91 -15.29,8.26 -23.21,11.85 -1.72,0.88 -3.68,0.73 -5.54,0.7 -1.15,-4.88 1.58,-10.04 -0.47,-14.72 -3.1,-3.74 -8.65,-2.28 -12.79,-1.61 -19.79,4.4 -38.72,13.08 -59.17,14.24 -8.83,0.59 -18.05,-0.81 -25.46,-5.93 1.53,8.69 0.99,17.73 -1.54,26.18 -2.19,7.58 -5.34,15.24 -4.34,23.3 2.27,-1.07 3.86,-3.1 5.97,-4.36 3.1,-0.98 7,-1.42 9.68,0.84 1.28,0.98 2.38,2.18 3.53,3.33 7.35,-6.43 18.28,-4.39 26.18,-0.17 7.23,3.47 11.46,11.22 19.25,13.73 7.61,2.8 16.57,5.38 24.24,1.39 -1.29,4.36 -4,8.42 -8.28,10.3 -9.07,4.27 -19.52,3.4 -29.15,1.95 -11.49,-2.24 -23.56,-5.84 -31.82,-14.62 -1.74,5.51 -6.12,9.49 -11.04,12.21 4.34,8.74 10.81,16.97 20.06,20.81 6.91,2.62 14.75,3.95 21.92,1.55 9.45,-2.94 17.88,-8.36 25.9,-14.02 8.66,-6.26 16.51,-13.53 23.92,-21.21 -2.58,8.48 -7.74,15.94 -13.96,22.16 -10.12,10.38 -22.38,19.29 -36.57,23 -9.85,2.44 -20.17,-0.87 -28.48,-6.21 -8.81,-5.84 -15.87,-14.09 -21.12,-23.21 -8.01,1.65 -17.23,0.69 -23.3,-5.26 -1.7,-1.61 -2.15,-3.92 -2.39,-6.13 2.51,0.38 5.32,1.27 7.64,-0.28 3.66,-2.23 6.99,-5.09 9.82,-8.3 -0.35,-3.91 -1.5,-7.72 -1.41,-11.67 -0.5,-7.13 2.05,-13.93 4.34,-20.54 2.22,-6.32 5.39,-12.61 5.09,-19.49 0.26,-4.5 -1.1,-8.8 -2.01,-13.14 0.61,-1.63 1.63,-1.99 3.08,-1.06 2.21,1.64 2.95,5.06 5.95,5.58 13.35,3.79 27.52,1.74 40.67,-1.86 19.23,-5.42 37.16,-14.36 55.78,-21.43 11.71,-4.57 24.7,-7.15 37.14,-4.2 -1.31,-7.79 0.8,-16.11 6.23,-21.95 -14.75,4 -30.76,1.59 -44.91,8.16 1.74,-4.36 4.9,-8.02 8.77,-10.64 4.67,-3.17 9.47,-6.53 15.13,-7.59 11.44,-2.41 23.24,-2.68 34.6,-5.54 1.5,-0.35 3.06,-0.98 3.77,-2.47 6.1,-9.47 6.2,-21.4 4.08,-32.11 -1.67,-10.78 -6.49,-21.74 -15.75,-28.04 -10.31,-6.77 -23.29,-7.97 -35.29,-6.82 -22.06,3.78 -39.71,19.29 -61.17,24.92 -10.96,3.15 -23.09,1.83 -32.86,-4.15 7.03,-0.13 14.05,-1.06 20.81,-3.01 23.53,-6.6 42.08,-24.7 66.12,-29.95 z"
         id="path3"
         style="fill:#000000" />
      <path
         fill="#181513"
         opacity="1"
         d="m 357.5,132.54 c 21.6,-10.35 47.55,-8.09 68.69,2.31 -10,-1.55 -20.05,-3.36 -30.22,-3.09 -13.62,0.39 -27.75,3.1 -39.02,11.19 -9.96,6.81 -16.78,18.79 -15.57,31.06 1,14.57 13.23,26 26.67,30.02 4.86,1.98 11.62,1.12 14.52,6.38 3.72,6.94 3.54,15.24 2.55,22.84 -1.35,6.94 -0.87,15.07 -6.18,20.49 -3.48,-2.03 -4.1,-6.26 -4.9,-9.84 -0.8,-3.26 -0.75,-6.62 -0.75,-9.95 0.11,-3.66 -1.52,-7.05 -2.38,-10.54 -14.82,-4.79 -29.95,-12.1 -38.87,-25.42 -7.07,-10.08 -8.51,-23.66 -4.01,-35.07 5.11,-13.63 16.49,-24.23 29.47,-30.38 z"
         id="path5"
         style="fill:#000000" />
      <path
         fill="#181513"
         opacity="1"
         d="m 450.39,185.4 c 8.64,-6.17 19.85,-7.9 30.18,-6.12 -7.95,5.37 -16.4,9.97 -24.9,14.4 -8.07,4.02 -16.55,7.79 -25.62,8.63 -11.49,0.85 -21.27,-6.21 -30.94,-11.31 11.04,-0.23 21.91,3.41 32.96,2.02 6.63,-0.94 12.9,-3.73 18.32,-7.62 z"
         id="path7"
         style="fill:#000000" />
      <path
         fill="#181513"
         opacity="1"
         d="m 497.07,350.07 c 5.31,-4.11 9.34,-9.56 12.71,-15.32 3.58,7.59 5.22,15.95 5.95,24.27 0.76,6.71 -2.15,13.29 -6.28,18.44 -5.53,6.11 -13.45,9.16 -20.94,12.14 -10.43,3.9 -20.9,7.83 -30.64,13.31 -4.88,2.68 -9.52,5.77 -14.32,8.59 -3.59,2 -7.61,4.18 -11.86,3.09 -2.29,-7.04 0.09,-14.41 -0.72,-21.59 -0.58,-4.75 0.03,-9.99 3.29,-13.72 4.84,-5.48 12.02,-7.89 18.73,-10.23 15.16,-5.01 31.32,-8.84 44.08,-18.98 z"
         id="path9"
         style="fill:#000000" />
      <path
         fill="#181513"
         opacity="1"
         d="m 385.63,368.76 c 0.94,-2.75 3.27,-4.58 5.92,-5.57 5.14,9.23 14.66,14.81 23.75,19.54 2.1,1.24 2.03,4.09 2.37,6.23 0.31,6.49 0.67,13.42 -2.24,19.42 -0.93,1.73 -3.08,4.01 -5.15,2.58 -8.03,-4.76 -14.39,-11.84 -20.23,-19.01 -5.98,-5.9 -7.36,-15.51 -4.42,-23.19 z"
         id="path11"
         style="fill:#000000" />
    </g>
    <path
       style="fill:#ffffff;fill-opacity:1;stroke:none;stroke-width:0.965;stroke-linecap:butt;stroke-linejoin:miter;stroke-miterlimit:4;stroke-dasharray:none;stroke-opacity:1"
       d="m 54.430987,-161.41967 1.012787,8.91698 c 2.331042,3.46668 22.452722,12.40899 38.873562,4.45848 16.546434,-8.01132 37.671994,-11.98292 51.899194,-15.69046 14.22721,-3.70753 7.63466,10.49604 12.1297,-5.34121 4.49504,-15.83726 5.95765,-15.72182 19.15416,-27.38872 13.1965,-11.66689 15.18403,-31.84233 2.51097,-42.10147 -12.67306,-10.25915 -17.28211,-17.93608 -39.16702,-10.27226 -21.842,7.64881 -48.683744,9.0457 -57.858314,4.13837 l -18.82488,-2.3211 c 0,0 8.66802,-0.2136 -13.453647,3.00139 -18.036468,2.62128 -28.794057,15.45885 -18.145832,39.17521 7.231425,16.10626 1.310736,19.2872 16.939883,17.641 15.629136,-1.6462 4.929437,25.78379 4.929437,25.78379 z"
       id="path5012"
       sodipodi:nodetypes="ccssssssccsssc" />
    <g
       id="#181513ff-5"
       style="fill:#ffffff"
       transform="matrix(0.7215149,0,0,0.7215149,-216.37253,-340.00277)">
      <path
         fill="#181513"
         opacity="1"
         d="m 488.88,117.71 c 17.33,-4.16 36.3,0.21 50.36,11.05 15.68,11.9 25.2,32.24 21.99,51.94 -1.73,6.58 -3.81,13.21 -7.63,18.9 -4.22,6.35 -10.25,11.14 -16.15,15.84 -3.74,2.9 -7.52,6.22 -9.04,10.87 -1.38,4.34 -2.47,8.9 -2.56,13.45 3.27,3.28 6.42,6.98 7.47,11.62 2.97,11.73 -0.16,23.91 -3.7,35.16 -4.14,11.57 -8.31,23.41 -15.74,33.35 -4.07,5.49 -8.09,11.25 -13.74,15.25 -1.79,1.28 -4.16,2.35 -6.29,1.19 -2.16,-2.19 -1.57,-5.53 -1.69,-8.31 0.31,-7.31 0.12,-14.62 0.23,-21.93 0.53,-5.83 3.17,-12.39 9.02,-14.65 3.52,-1.84 8.45,-1.77 10.59,-5.61 2.29,-4.6 1.5,-9.95 1.68,-14.91 0.19,-2.82 -0.7,-5.5 -2.44,-7.72 -8.25,2.91 -15.29,8.26 -23.21,11.85 -1.72,0.88 -3.68,0.73 -5.54,0.7 -1.15,-4.88 1.58,-10.04 -0.47,-14.72 -3.1,-3.74 -8.65,-2.28 -12.79,-1.61 -19.79,4.4 -38.72,13.08 -59.17,14.24 -8.83,0.59 -18.05,-0.81 -25.46,-5.93 1.53,8.69 0.99,17.73 -1.54,26.18 -2.19,7.58 -5.34,15.24 -4.34,23.3 2.27,-1.07 3.86,-3.1 5.97,-4.36 3.1,-0.98 7,-1.42 9.68,0.84 1.28,0.98 2.38,2.18 3.53,3.33 7.35,-6.43 18.28,-4.39 26.18,-0.17 7.23,3.47 11.46,11.22 19.25,13.73 7.61,2.8 16.57,5.38 24.24,1.39 -1.29,4.36 -4,8.42 -8.28,10.3 -9.07,4.27 -19.52,3.4 -29.15,1.95 -11.49,-2.24 -23.56,-5.84 -31.82,-14.62 -1.74,5.51 -6.12,9.49 -11.04,12.21 4.34,8.74 10.81,16.97 20.06,20.81 6.91,2.62 14.75,3.95 21.92,1.55 9.45,-2.94 17.88,-8.36 25.9,-14.02 8.66,-6.26 16.51,-13.53 23.92,-21.21 -2.58,8.48 -7.74,15.94 -13.96,22.16 -10.12,10.38 -22.38,19.29 -36.57,23 -9.85,2.44 -20.17,-0.87 -28.48,-6.21 -8.81,-5.84 -15.87,-14.09 -21.12,-23.21 -8.01,1.65 -17.23,0.69 -23.3,-5.26 -1.7,-1.61 -2.15,-3.92 -2.39,-6.13 2.51,0.38 5.32,1.27 7.64,-0.28 3.66,-2.23 6.99,-5.09 9.82,-8.3 -0.35,-3.91 -1.5,-7.72 -1.41,-11.67 -0.5,-7.13 2.05,-13.93 4.34,-20.54 2.22,-6.32 5.39,-12.61 5.09,-19.49 0.26,-4.5 -1.1,-8.8 -2.01,-13.14 0.61,-1.63 1.63,-1.99 3.08,-1.06 2.21,1.64 2.95,5.06 5.95,5.58 13.35,3.79 27.52,1.74 40.67,-1.86 19.23,-5.42 37.16,-14.36 55.78,-21.43 11.71,-4.57 24.7,-7.15 37.14,-4.2 -1.31,-7.79 0.8,-16.11 6.23,-21.95 -14.75,4 -30.76,1.59 -44.91,8.16 1.74,-4.36 4.9,-8.02 8.77,-10.64 4.67,-3.17 9.47,-6.53 15.13,-7.59 11.44,-2.41 23.24,-2.68 34.6,-5.54 1.5,-0.35 3.06,-0.98 3.77,-2.47 6.1,-9.47 6.2,-21.4 4.08,-32.11 -1.67,-10.78 -6.49,-21.74 -15.75,-28.04 -10.31,-6.77 -23.29,-7.97 -35.29,-6.82 -22.06,3.78 -39.71,19.29 -61.17,24.92 -10.96,3.15 -23.09,1.83 -32.86,-4.15 7.03,-0.13 14.05,-1.06 20.81,-3.01 23.53,-6.6 42.08,-24.7 66.12,-29.95 z"
         id="path3-7"
         style="fill:#ffffff" />
      <path
         fill="#181513"
         opacity="1"
         d="m 357.5,132.54 c 21.6,-10.35 47.55,-8.09 68.69,2.31 -10,-1.55 -20.05,-3.36 -30.22,-3.09 -13.62,0.39 -27.75,3.1 -39.02,11.19 -9.96,6.81 -16.78,18.79 -15.57,31.06 1,14.57 13.23,26 26.67,30.02 4.86,1.98 11.62,1.12 14.52,6.38 3.72,6.94 3.54,15.24 2.55,22.84 -1.35,6.94 -0.87,15.07 -6.18,20.49 -3.48,-2.03 -4.1,-6.26 -4.9,-9.84 -0.8,-3.26 -0.75,-6.62 -0.75,-9.95 0.11,-3.66 -1.52,-7.05 -2.38,-10.54 -14.82,-4.79 -29.95,-12.1 -38.87,-25.42 -7.07,-10.08 -8.51,-23.66 -4.01,-35.07 5.11,-13.63 16.49,-24.23 29.47,-30.38 z"
         id="path5-0"
         style="fill:#ffffff" />
      <path
         fill="#181513"
         opacity="1"
         d="m 450.39,185.4 c 8.64,-6.17 19.85,-7.9 30.18,-6.12 -7.95,5.37 -16.4,9.97 -24.9,14.4 -8.07,4.02 -16.55,7.79 -25.62,8.63 -11.49,0.85 -21.27,-6.21 -30.94,-11.31 11.04,-0.23 21.91,3.41 32.96,2.02 6.63,-0.94 12.9,-3.73 18.32,-7.62 z"
         id="path7-7"
         style="fill:#ffffff" />
      <path
         fill="#181513"
         opacity="1"
         d="m 497.07,350.07 c 5.31,-4.11 9.34,-9.56 12.71,-15.32 3.58,7.59 5.22,15.95 5.95,24.27 0.76,6.71 -2.15,13.29 -6.28,18.44 -5.53,6.11 -13.45,9.16 -20.94,12.14 -10.43,3.9 -20.9,7.83 -30.64,13.31 -4.88,2.68 -9.52,5.77 -14.32,8.59 -3.59,2 -7.61,4.18 -11.86,3.09 -2.29,-7.04 0.09,-14.41 -0.72,-21.59 -0.58,-4.75 0.03,-9.99 3.29,-13.72 4.84,-5.48 12.02,-7.89 18.73,-10.23 15.16,-5.01 31.32,-8.84 44.08,-18.98 z"
         id="path9-6"
         style="fill:#ffffff" />
      <path
         fill="#181513"
         opacity="1"
         d="m 385.63,368.76 c 0.94,-2.75 3.27,-4.58 5.92,-5.57 5.14,9.23 14.66,14.81 23.75,19.54 2.1,1.24 2.03,4.09 2.37,6.23 0.31,6.49 0.67,13.42 -2.24,19.42 -0.93,1.73 -3.08,4.01 -5.15,2.58 -8.03,-4.76 -14.39,-11.84 -20.23,-19.01 -5.98,-5.9 -7.36,-15.51 -4.42,-23.19 z"
         id="path11-6"
         style="fill:#ffffff" />
    </g>
    <g
       id="#ffffffff-8"
       transform="matrix(0.35277778,0,0,0.35277778,-372.44019,284.35776)" />
    <g
       id="g7084"
       transform="translate(59.741364,-92.172409)">
      <circle
         style="fill:#df1d19;fill-opacity:1;stroke-width:2.40478;stroke-linecap:square;stroke-miterlimit:1;paint-order:fill markers stroke"
         id="path1393-2"
         cx="88.758636"
         cy="240.67241"
         r="141.4557" />
      <path
         fill="#000000"
         opacity="1"
         d="m 135.06943,216.03087 c 10.14609,-9.4471 23.58129,-15.08223 37.3296,-16.40475 6.96328,-0.76471 14.26674,-0.55071 20.81282,2.17211 4.75195,1.93477 8.7688,5.83001 10.37519,10.75967 1.92053,5.91455 1.67361,12.78577 -1.55607,18.19979 -3.14618,5.36002 -10.14482,7.84493 -16.02035,6.0438 -3.1763,-0.96478 -5.61555,-3.79415 -6.17056,-7.05985 -1.16415,-5.44621 0.89256,-10.90746 3.34237,-15.69124 -10.50264,-2.79591 -22.85702,0.1855 -29.80364,8.82518 -4.56517,5.61131 -6.26606,13.37453 -4.63529,20.3953 1.37296,5.72022 5.74877,10.17724 10.62367,13.18999 9.30262,5.8488 19.93398,9.07507 29.58343,14.26478 10.80401,5.39253 20.9893,14.05873 24.0743,26.21 3.37645,13.94583 0.99057,29.49456 -7.31555,41.32764 -7.12454,10.22142 -18.08018,17.30831 -29.82261,21.10838 -9.92024,3.15838 -20.67422,4.4091 -30.91672,2.16387 -7.04125,-1.55446 -13.83557,-5.09887 -18.37418,-10.80321 -4.79114,-5.87183 -6.83608,-13.57211 -6.87613,-21.04959 -0.003,-5.62964 1.61995,-11.49791 5.54007,-15.67185 3.09348,-3.33326 7.79826,-5.34049 12.3564,-4.52199 2.50842,0.43437 4.67188,2.208 5.73392,4.50194 1.65249,3.6057 1.67169,7.80869 0.55742,11.57705 -1.39026,4.81639 -3.90402,9.18202 -6.2124,13.60249 3.81524,4.14887 8.94723,7.11488 14.56381,7.93192 8.37483,1.26141 17.32548,-0.81638 24.1569,-5.85384 7.89982,-5.87314 10.59695,-17.32194 6.71388,-26.26045 -1.94481,-4.41009 -5.5984,-7.81323 -9.623,-10.33848 -6.86667,-4.2905 -14.47381,-7.16933 -21.67396,-10.83145 -9.49621,-4.65513 -19.90061,-9.02101 -26.12314,-18.05554 -3.20521,5.8689 -6.69512,11.66727 -11.38706,16.47652 -4.67741,4.92954 -10.41963,8.92705 -16.88181,11.12081 -7.346596,2.52551 -15.662557,3.32652 -23.014121,0.39443 -6.209637,-2.40319 -11.096215,-7.59944 -13.606521,-13.71212 -3.407547,-8.23229 -3.771262,-17.64111 -1.252936,-26.16723 3.000161,-10.36506 9.673234,-19.52468 18.296592,-25.94613 2.156785,-1.58668 4.392526,-3.13003 6.909482,-4.12082 -0.711272,5.59857 -1.891602,11.19059 -1.414191,16.87395 0.409936,6.09795 1.815387,12.8624 6.756496,16.94583 4.647589,3.82932 11.494319,3.38765 16.646339,0.85583 5.47121,-2.72375 8.41234,-8.51683 10.32077,-14.05321 1.21545,-3.92278 2.53321,-7.84898 3.19722,-11.92392 1.87353,-10.12757 7.27321,-19.46892 14.78956,-26.47561 z"
         id="path861-4-0"
         style="fill:#ffffff;fill-opacity:1;stroke-width:0.669238" />
      <path
         fill="#000000"
         opacity="1"
         d="m -21.866085,138.48123 c 12.0178946,-12.71301 27.5637778,-22.90773 45.122391,-25.53895 4.178531,-0.70783 8.963943,-0.23851 11.898244,3.17578 8.528403,-7.29288 19.362349,-11.94488 30.586856,-12.71501 6.520236,-0.42678 13.400546,1.14491 18.461969,5.44753 6.22435,5.1841 9.259475,13.23587 10.253675,21.08704 1.387888,10.57732 -1.821138,21.3696 -7.608213,30.20394 -3.604098,5.7221 -8.519055,10.46003 -13.810654,14.6197 9.037889,-0.18692 18.238005,2.77083 24.885719,9.02411 7.479218,6.80706 11.707478,16.83316 11.860748,26.89649 0.60182,12.23348 -2.67443,24.93225 -10.587936,34.45922 -8.65358,10.56043 -21.682636,16.63628 -34.850501,19.28663 -8.157352,1.06622 -16.722327,0.75019 -24.49312,-2.15208 -4.319974,6.303 -11.25052,10.30502 -18.51319,12.2814 -6.746825,1.88945 -14.2630917,2.96298 -20.93368025,0.20774 -7.41667415,-3.15054 -11.95743175,-10.91 -13.45132775,-18.54738 3.1782486,0.47618 5.7877075,2.62616 8.9241915,3.30466 6.1951153,1.81535 14.1517615,-0.45489 17.0711245,-6.54533 2.324925,-5.37309 1.108345,-11.36384 0.768114,-16.99007 -11.5264756,5.77056 -24.609783,10.03728 -37.612517,7.83628 -8.751501,-1.37217 -16.644312,-7.04382 -20.666965,-14.93891 -5.530716,-10.68227 -6.103748,-23.23186 -4.607217,-34.96201 2.992558,-20.74455 13.073488,-40.17259 27.302289,-55.44068 m 10.909721,21.1871 c -4.552698,12.73775 -6.387811,26.62378 -4.136755,40.02308 1.295792,7.29209 4.244711,14.88974 10.464552,19.35303 4.97332105,3.63582 11.4846795,4.19431 17.41293,3.26741 -2.241332,-29.78474 -4.4014142,-59.57483 -6.7646121,-89.35153 -7.8443645,7.24882 -13.3467876,16.73808 -16.9761149,26.70801 m 49.838141,-30.89005 c -1.021677,0.50845 -0.646622,1.66458 -0.623308,2.5529 1.307326,16.69436 2.54648,33.39105 3.834273,50.09005 3.108609,-0.69679 6.253243,-1.5327 8.96571,-3.27069 6.146497,-3.7695 10.048033,-10.33158 12.063065,-17.1099 2.684678,-9.16336 2.583157,-19.32826 -1.200688,-28.16639 -1.726011,-4.03527 -5.044631,-7.82658 -9.556817,-8.56652 -4.91378,-0.81049 -9.688687,1.57075 -13.482235,4.47055 m 4.092518,64.95501 c 0.918295,12.81902 1.82511,25.6476 2.736884,38.46818 0.391194,5.69675 0.163577,11.42221 -0.822537,17.051 6.517077,1.31337 13.581495,0.74487 19.538252,-2.34062 6.697543,-3.58972 10.671941,-10.71894 12.290392,-17.92648 1.50348,-6.9949 1.514007,-14.37428 -0.211714,-21.33149 -1.515475,-6.20916 -5.580449,-12.12116 -11.698107,-14.48412 -7.024687,-2.85771 -14.773968,-1.25499 -21.833095,0.56353 z"
         id="path859-3-3"
         style="fill:#ffffff;fill-opacity:1;stroke-width:0.669238" />
    </g>
  </g>
</svg>
